  0
SECTION
  2
HEADER
  9
$ANGBASE
  50
0.0
  9
$ANGDIR
  70
1
  9
$MEASUREMENT
  70
1
  0
ENDSEC
  0
SECTION
  2
TABLES
  0
TABLE
  2
LTYPE
  70
4
  0
LTYPE
  5
40F
  2
CONTINUOUS
  70
0
  3
Solid line
  72
65
  73
0
  40
0.0
  0
LTYPE
  5
410
  2
DASHDOT
 70
0
  3
Dash Dot ____ _ ____ _
 72
65
 73
4
 40
2.0
 49
1.25
 49
-0.25
 49
0.25
 49
-0.25
  0
LTYPE
  5
411
  2
DASHED
 70
0
  3
Dashed __ __ __ __ __
 72
65
 73
2
 40
0.75
 49
0.5
 49
-0.25
  0
LTYPE
  5
43B
  2
DOTTED
 70
0
  3
Dotted .  .  .  .
 72
65
 73
2
 40
0.2
 49
0.0
 49
-0.2
  0
ENDTAB
  0
TABLE
  2
STYLE
  70
4
  0
STYLE
  2
KICAD
  70
0
  40
0
  41
1
  42
1
  50
0
  71
0
  3
isocp.shx
  0
STYLE
  2
KICADB
  70
0
  40
0
  41
1
  42
1
  50
0
  71
0
  3
isocp.shx
  0
STYLE
  2
KICADI
  70
0
  40
0
  41
1
  42
1
  50
15
  71
0
  3
isocp.shx
  0
STYLE
  2
KICADBI
  70
0
  40
0
  41
1
  42
1
  50
15
  71
0
  3
isocp.shx
  0
ENDTAB
  0
TABLE
  2
LAYER
  70
1
  0
LAYER
  2
BLACK
  70
0
  62
7
  6
CONTINUOUS
  0
ENDTAB
  0
ENDSEC
  0
SECTION
  2
ENTITIES
0
LINE
8
BLACK
6
CONTINUOUS
10
192.5191339999999798
20
-55.4538060000000002
11
192.5461939999999856
21
-55.4808659999999989
0
LINE
8
BLACK
6
CONTINUOUS
10
192.5461939999999856
20
-55.4808659999999989
11
192.5499999999999829
21
-55.5
0
LINE
8
BLACK
6
CONTINUOUS
10
192.5499999999999829
20
-55.5
11
192.5499999999999829
21
-127.5
0
LINE
8
BLACK
6
CONTINUOUS
10
192.5499999999999829
20
-127.5
11
192.5461939999999856
21
-127.519133999999994
0
LINE
8
BLACK
6
CONTINUOUS
10
192.5461939999999856
20
-127.519133999999994
11
192.5461849999999799
21
-127.519141999999988
0
LINE
8
BLACK
6
CONTINUOUS
10
192.5461849999999799
20
-127.519141999999988
11
192.5461849999999799
21
-127.5191559999999953
0
LINE
8
BLACK
6
CONTINUOUS
10
192.5461849999999799
20
-127.5191559999999953
11
192.5326479999999947
21
-127.5326789999999875
0
LINE
8
BLACK
6
CONTINUOUS
10
192.5326479999999947
20
-127.5326789999999875
11
192.5191339999999798
21
-127.5461939999999998
0
LINE
8
BLACK
6
CONTINUOUS
10
192.5191339999999798
20
-127.5461939999999998
11
192.5191209999999842
21
-127.5461939999999998
0
LINE
8
BLACK
6
CONTINUOUS
10
192.5191209999999842
20
-127.5461939999999998
11
192.5191119999999785
21
-127.5462029999999913
0
LINE
8
BLACK
6
CONTINUOUS
10
192.5191119999999785
20
-127.5462029999999913
11
192.4999760000000038
21
-127.5499999999999972
0
LINE
8
BLACK
6
CONTINUOUS
10
192.4999760000000038
20
-127.5499999999999972
11
92.2999760000000009
21
-127.5024999999999977
0
LINE
8
BLACK
6
CONTINUOUS
10
92.2999760000000009
20
-127.5024999999999977
11
92.2809689999999989
21
-127.498708999999991
0
LINE
8
BLACK
6
CONTINUOUS
10
92.2809689999999989
20
-127.498708999999991
11
92.280902999999995
21
-127.4987099999999884
0
LINE
8
BLACK
6
CONTINUOUS
10
92.280902999999995
20
-127.4987099999999884
11
92.2808859999999953
21
-127.4986929999999887
0
LINE
8
BLACK
6
CONTINUOUS
10
92.2808859999999953
20
-127.4986929999999887
11
92.2808440000000019
21
-127.4986849999999947
0
LINE
8
BLACK
6
CONTINUOUS
10
92.2808440000000019
20
-127.4986849999999947
11
92.2677329999999927
21
-127.4855609999999899
0
LINE
8
BLACK
6
CONTINUOUS
10
92.2677329999999927
20
-127.4855609999999899
11
92.2538210000000021
21
-127.4716719999999981
0
LINE
8
BLACK
6
CONTINUOUS
10
92.2538210000000021
20
-127.4716719999999981
11
92.2538119999999964
21
-127.471626999999998
0
LINE
8
BLACK
6
CONTINUOUS
10
92.2538119999999964
20
-127.471626999999998
11
92.2537969999999916
21
-127.4716119999999933
0
LINE
8
BLACK
6
CONTINUOUS
10
92.2537969999999916
20
-127.4716119999999933
11
92.2537969999999916
21
-127.4715509999999909
0
LINE
8
BLACK
6
CONTINUOUS
10
92.2537969999999916
20
-127.4715509999999909
11
92.25
21
-127.4525409999999965
0
LINE
8
BLACK
6
CONTINUOUS
10
92.25
20
-127.4525409999999965
11
92.1918000000000006
21
-55.5000399999999985
0
LINE
8
BLACK
6
CONTINUOUS
10
92.1918000000000006
20
-55.5000399999999985
11
92.1955909999999932
21
-55.4809029999999979
0
LINE
8
BLACK
6
CONTINUOUS
10
92.1955909999999932
20
-55.4809029999999979
11
92.1956059999999979
21
-55.4808869999999956
0
LINE
8
BLACK
6
CONTINUOUS
10
92.1956059999999979
20
-55.4808869999999956
11
92.1956059999999979
21
-55.4808659999999989
0
LINE
8
BLACK
6
CONTINUOUS
10
92.1956059999999979
20
-55.4808659999999989
11
92.2091099999999955
21
-55.4673619999999943
0
LINE
8
BLACK
6
CONTINUOUS
10
92.2091099999999955
20
-55.4673619999999943
11
92.2226289999999977
21
-55.4538209999999978
0
LINE
8
BLACK
6
CONTINUOUS
10
92.2226289999999977
20
-55.4538209999999978
11
92.222650999999999
21
-55.4538200000000003
0
LINE
8
BLACK
6
CONTINUOUS
10
92.222650999999999
20
-55.4538200000000003
11
92.2226659999999896
21
-55.4538060000000002
0
LINE
8
BLACK
6
CONTINUOUS
10
92.2226659999999896
20
-55.4538060000000002
11
92.2417999999999978
21
-55.4499999999999957
0
LINE
8
BLACK
6
CONTINUOUS
10
92.2417999999999978
20
-55.4499999999999957
11
192.5
21
-55.4499999999999957
0
LINE
8
BLACK
6
CONTINUOUS
10
192.5
20
-55.4499999999999957
11
192.5191339999999798
21
-55.4538060000000002
0
LINE
8
BLACK
6
CONTINUOUS
10
92.2918399999999934
20
-55.5499999999999972
11
92.3499589999999984
21
-127.402522999999988
0
LINE
8
BLACK
6
CONTINUOUS
10
92.3499589999999984
20
-127.402522999999988
11
192.4499999999999886
21
-127.4499759999999924
0
LINE
8
BLACK
6
CONTINUOUS
10
192.4499999999999886
20
-127.4499759999999924
11
192.4499999999999886
21
-55.5499999999999972
0
LINE
8
BLACK
6
CONTINUOUS
10
192.4499999999999886
20
-55.5499999999999972
11
92.2918399999999934
21
-55.5499999999999972
  0
ENDSEC
  0
EOF
